<mxfile host="65bd71144e">
    <diagram name="Aurora Chatbot API Flow" id="C5RBs43odoN0VoZxAdvR">
        <mxGraphModel dx="1756" dy="1382" grid="1" gridSize="10" guides="1" tooltips="1" connect="1" arrows="1" fold="1" page="1" pageScale="1" pageWidth="1100" pageHeight="850" math="0" shadow="0">
            <root>
                <mxCell id="0"/>
                <mxCell id="1" parent="0"/>
                <mxCell id="2" value="Client" style="rounded=1;whiteSpace=wrap;html=1;fillColor=#dae8fc;strokeColor=#6c8ebf;" parent="1" vertex="1">
                    <mxGeometry x="50" y="50" width="120" height="60" as="geometry"/>
                </mxCell>
                <mxCell id="3" value="Chatbot Service" style="rounded=1;whiteSpace=wrap;html=1;fillColor=#d5e8d4;strokeColor=#82b366;" parent="1" vertex="1">
                    <mxGeometry x="290" y="50" width="150" height="60" as="geometry"/>
                </mxCell>
                <mxCell id="4" value="MCP Service" style="rounded=1;whiteSpace=wrap;html=1;fillColor=#fff2cc;strokeColor=#d6b656;" parent="1" vertex="1">
                    <mxGeometry x="560" y="50" width="150" height="60" as="geometry"/>
                </mxCell>
                <mxCell id="5" value="DB Service" style="rounded=1;whiteSpace=wrap;html=1;fillColor=#e1d5e7;strokeColor=#9673a6;" parent="1" vertex="1">
                    <mxGeometry x="830" y="50" width="150" height="60" as="geometry"/>
                </mxCell>
                <mxCell id="6" value="Gemini API" style="rounded=1;whiteSpace=wrap;html=1;fillColor=#f8cecc;strokeColor=#b85450;" parent="1" vertex="1">
                    <mxGeometry x="1210" y="50" width="150" height="60" as="geometry"/>
                </mxCell>
                <mxCell id="7" value="" style="endArrow=none;dashed=1;html=1;rounded=0;entryX=0.5;entryY=1;entryDx=0;entryDy=0;" parent="1" target="2" edge="1">
                    <mxGeometry width="50" height="50" relative="1" as="geometry">
                        <mxPoint x="110" y="700" as="sourcePoint"/>
                        <mxPoint x="160" y="150" as="targetPoint"/>
                    </mxGeometry>
                </mxCell>
                <mxCell id="8" value="" style="endArrow=none;dashed=1;html=1;rounded=0;entryX=0.5;entryY=1;entryDx=0;entryDy=0;" parent="1" target="3" edge="1">
                    <mxGeometry width="50" height="50" relative="1" as="geometry">
                        <mxPoint x="365" y="700" as="sourcePoint"/>
                        <mxPoint x="120" y="120" as="targetPoint"/>
                    </mxGeometry>
                </mxCell>
                <mxCell id="9" value="" style="endArrow=none;dashed=1;html=1;rounded=0;entryX=0.5;entryY=1;entryDx=0;entryDy=0;" parent="1" target="4" edge="1">
                    <mxGeometry width="50" height="50" relative="1" as="geometry">
                        <mxPoint x="635" y="700" as="sourcePoint"/>
                        <mxPoint x="375" y="120" as="targetPoint"/>
                    </mxGeometry>
                </mxCell>
                <mxCell id="10" value="" style="endArrow=none;dashed=1;html=1;rounded=0;entryX=0.5;entryY=1;entryDx=0;entryDy=0;" parent="1" target="5" edge="1">
                    <mxGeometry width="50" height="50" relative="1" as="geometry">
                        <mxPoint x="905" y="700" as="sourcePoint"/>
                        <mxPoint x="645" y="120" as="targetPoint"/>
                    </mxGeometry>
                </mxCell>
                <mxCell id="11" value="" style="endArrow=none;dashed=1;html=1;rounded=0;entryX=0.5;entryY=1;entryDx=0;entryDy=0;" parent="1" target="6" edge="1">
                    <mxGeometry width="50" height="50" relative="1" as="geometry">
                        <mxPoint x="1285" y="630" as="sourcePoint"/>
                        <mxPoint x="1045" y="120" as="targetPoint"/>
                    </mxGeometry>
                </mxCell>
                <mxCell id="12" value="POST /api/chatbot/query/:userId/:connectionId&#xa;{prompt: &quot;What AWS resources do I have?&quot;}" style="endArrow=classic;html=1;rounded=0;" parent="1" edge="1">
                    <mxGeometry width="50" height="50" relative="1" as="geometry">
                        <mxPoint x="110" y="160" as="sourcePoint"/>
                        <mxPoint x="365" y="160" as="targetPoint"/>
                    </mxGeometry>
                </mxCell>
                <mxCell id="13" value="chatbotController.processQuery()" style="rounded=0;whiteSpace=wrap;html=1;fillColor=#d5e8d4;strokeColor=#82b366;" parent="1" vertex="1">
                    <mxGeometry x="290" y="180" width="150" height="30" as="geometry"/>
                </mxCell>
                <mxCell id="14" value="mcpService.processQuery()" style="endArrow=classic;html=1;rounded=0;" parent="1" edge="1">
                    <mxGeometry width="50" height="50" relative="1" as="geometry">
                        <mxPoint x="365" y="230" as="sourcePoint"/>
                        <mxPoint x="635" y="230" as="targetPoint"/>
                    </mxGeometry>
                </mxCell>
                <mxCell id="15" value="POST /api/mcp/query&#xa;{prompt, userId, connectionId}" style="endArrow=classic;html=1;rounded=0;" parent="1" edge="1">
                    <mxGeometry width="50" height="50" relative="1" as="geometry">
                        <mxPoint x="635" y="260" as="sourcePoint"/>
                        <mxPoint x="635" y="290" as="targetPoint"/>
                    </mxGeometry>
                </mxCell>
                <mxCell id="16" value="mcpController.processQuery()" style="rounded=0;whiteSpace=wrap;html=1;fillColor=#fff2cc;strokeColor=#d6b656;" parent="1" vertex="1">
                    <mxGeometry x="560" y="290" width="150" height="30" as="geometry"/>
                </mxCell>
                <mxCell id="17" value="contextService.getContext()" style="rounded=0;whiteSpace=wrap;html=1;fillColor=#fff2cc;strokeColor=#d6b656;" parent="1" vertex="1">
                    <mxGeometry x="560" y="340" width="150" height="30" as="geometry"/>
                </mxCell>
                <mxCell id="18" value="cloudDataAdapter.supportsQuery()" style="text;html=1;strokeColor=none;fillColor=none;align=center;verticalAlign=middle;whiteSpace=wrap;rounded=0;" parent="1" vertex="1">
                    <mxGeometry x="535" y="380" width="200" height="30" as="geometry"/>
                </mxCell>
                <mxCell id="19" value="cloudDataAdapter.getContextData()" style="text;html=1;strokeColor=none;fillColor=none;align=center;verticalAlign=middle;whiteSpace=wrap;rounded=0;" parent="1" vertex="1">
                    <mxGeometry x="535" y="420" width="200" height="30" as="geometry"/>
                </mxCell>
                <mxCell id="20" value="GET /api/cloud-query-results/:userId/:connectionId" style="endArrow=classic;html=1;rounded=0;" parent="1" edge="1">
                    <mxGeometry width="50" height="50" relative="1" as="geometry">
                        <mxPoint x="635" y="450" as="sourcePoint"/>
                        <mxPoint x="905" y="450" as="targetPoint"/>
                    </mxGeometry>
                </mxCell>
                <mxCell id="21" value="cloudQueryResults.getInfrastructureDataWithUserId()" style="rounded=0;whiteSpace=wrap;html=1;fillColor=#e1d5e7;strokeColor=#9673a6;" parent="1" vertex="1">
                    <mxGeometry x="785" y="470" width="240" height="30" as="geometry"/>
                </mxCell>
                <mxCell id="22" value="Neo4j Query&#xa;MATCH (n)&#xa;WHERE n.userId = $userId AND&#xa;      n.connectionId = $connectionId&#xa;RETURN collect(n) as resources" style="rounded=0;whiteSpace=wrap;html=1;fillColor=#e1d5e7;strokeColor=#9673a6;align=left;" parent="1" vertex="1">
                    <mxGeometry x="785" y="520" width="240" height="70" as="geometry"/>
                </mxCell>
                <mxCell id="23" value="Process resources into CloudInfrastructure" style="rounded=0;whiteSpace=wrap;html=1;fillColor=#e1d5e7;strokeColor=#9673a6;" parent="1" vertex="1">
                    <mxGeometry x="785" y="600" width="240" height="30" as="geometry"/>
                </mxCell>
                <mxCell id="24" value="JSON Infrastructure Data" style="endArrow=classic;html=1;rounded=0;" parent="1" edge="1">
                    <mxGeometry width="50" height="50" relative="1" as="geometry">
                        <mxPoint x="905" y="640" as="sourcePoint"/>
                        <mxPoint x="635" y="640" as="targetPoint"/>
                    </mxGeometry>
                </mxCell>
                <mxCell id="25" value="Format resource data&#xa;into context text" style="text;html=1;strokeColor=none;fillColor=none;align=center;verticalAlign=middle;whiteSpace=wrap;rounded=0;" parent="1" vertex="1">
                    <mxGeometry x="535" y="650" width="200" height="30" as="geometry"/>
                </mxCell>
                <mxCell id="26" value="modelService.generateResponse()" style="text;html=1;strokeColor=none;fillColor=none;align=center;verticalAlign=middle;whiteSpace=wrap;rounded=0;" parent="1" vertex="1">
                    <mxGeometry x="535" y="520" width="200" height="30" as="geometry"/>
                </mxCell>
                <mxCell id="27" value="AI Generate Request (prompt + context)" style="endArrow=classic;html=1;rounded=0;" parent="1" edge="1">
                    <mxGeometry width="50" height="50" relative="1" as="geometry">
                        <mxPoint x="980" y="560" as="sourcePoint"/>
                        <mxPoint x="1250" y="560" as="targetPoint"/>
                    </mxGeometry>
                </mxCell>
                <mxCell id="28" value="AI Response" style="endArrow=classic;html=1;rounded=0;" parent="1" edge="1">
                    <mxGeometry width="50" height="50" relative="1" as="geometry">
                        <mxPoint x="1295" y="630" as="sourcePoint"/>
                        <mxPoint x="1025" y="630" as="targetPoint"/>
                    </mxGeometry>
                </mxCell>
                <mxCell id="29" value="MCPResponse" style="endArrow=classic;html=1;rounded=0;" parent="1" edge="1">
                    <mxGeometry width="50" height="50" relative="1" as="geometry">
                        <mxPoint x="635" y="680" as="sourcePoint"/>
                        <mxPoint x="365" y="680" as="targetPoint"/>
                    </mxGeometry>
                </mxCell>
                <mxCell id="30" value="JSON Response" style="endArrow=classic;html=1;rounded=0;" parent="1" edge="1">
                    <mxGeometry width="50" height="50" relative="1" as="geometry">
                        <mxPoint x="365" y="690" as="sourcePoint"/>
                        <mxPoint x="110" y="690" as="targetPoint"/>
                    </mxGeometry>
                </mxCell>
                <mxCell id="31" value="Proccess everything together" style="rounded=0;whiteSpace=wrap;html=1;fillColor=#FFCCCC;strokeColor=#9673a6;align=left;" vertex="1" parent="1">
                    <mxGeometry x="1250" y="530" width="160" height="50" as="geometry"/>
                </mxCell>
            </root>
        </mxGraphModel>
    </diagram>
</mxfile>